<svg width="0" height="0" class="hidden">
  <symbol xmlns="http://www.w3.org/2000/svg" viewBox="0 0 16 16" id="case">
    <g clip-path="url(#clip0_101_18)">
      <path d="M5 0C4.73478 0 4.48043 0.105357 4.29289 0.292893C4.10536 0.48043 4 0.734784 4 1V15C4 15.2652 4.10536 15.5196 4.29289 15.7071C4.48043 15.8946 4.73478 16 5 16H11C11.2652 16 11.5196 15.8946 11.7071 15.7071C11.8946 15.5196 12 15.2652 12 15V1C12 0.734784 11.8946 0.48043 11.7071 0.292893C11.5196 0.105357 11.2652 0 11 0L5 0ZM5.5 14C5.63261 14 5.75979 14.0527 5.85355 14.1464C5.94732 14.2402 6 14.3674 6 14.5C6 14.6326 5.94732 14.7598 5.85355 14.8536C5.75979 14.9473 5.63261 15 5.5 15C5.36739 15 5.24021 14.9473 5.14645 14.8536C5.05268 14.7598 5 14.6326 5 14.5C5 14.3674 5.05268 14.2402 5.14645 14.1464C5.24021 14.0527 5.36739 14 5.5 14V14ZM7.5 14C7.63261 14 7.75979 14.0527 7.85355 14.1464C7.94732 14.2402 8 14.3674 8 14.5C8 14.6326 7.94732 14.7598 7.85355 14.8536C7.75979 14.9473 7.63261 15 7.5 15C7.36739 15 7.24021 14.9473 7.14645 14.8536C7.05268 14.7598 7 14.6326 7 14.5C7 14.3674 7.05268 14.2402 7.14645 14.1464C7.24021 14.0527 7.36739 14 7.5 14V14ZM5 1.5C5 1.36739 5.05268 1.24021 5.14645 1.14645C5.24021 1.05268 5.36739 1 5.5 1H10.5C10.6326 1 10.7598 1.05268 10.8536 1.14645C10.9473 1.24021 11 1.36739 11 1.5C11 1.63261 10.9473 1.75979 10.8536 1.85355C10.7598 1.94732 10.6326 2 10.5 2H5.5C5.36739 2 5.24021 1.94732 5.14645 1.85355C5.05268 1.75979 5 1.63261 5 1.5ZM5.5 3H10.5C10.6326 3 10.7598 3.05268 10.8536 3.14645C10.9473 3.24021 11 3.36739 11 3.5C11 3.63261 10.9473 3.75979 10.8536 3.85355C10.7598 3.94732 10.6326 4 10.5 4H5.5C5.36739 4 5.24021 3.94732 5.14645 3.85355C5.05268 3.75979 5 3.63261 5 3.5C5 3.36739 5.05268 3.24021 5.14645 3.14645C5.24021 3.05268 5.36739 3 5.5 3V3Z" ></path>
    </g>
    <defs>
      <clipPath id="clip0_101_18">
        <rect width="16" height="16" ></rect>
      </clipPath>
    </defs>
  </symbol>
  <symbol xmlns="http://www.w3.org/2000/svg" viewBox="0 0 16 16" id="cooler">
    <g clip-path="url(#clip0_101_24)">
      <path d="M9.99999 3.00001C9.99999 4.31301 9.69599 5.50801 9.19999 6.40001C8.98998 6.24182 8.75071 6.12679 8.496 6.06157C8.24129 5.99635 7.97619 5.98222 7.71599 6.02001C7.43599 5.03801 6.80599 3.98001 5.87799 3.05101C5.72044 2.89319 5.55664 2.74174 5.38699 2.59701C6.20155 2.20273 7.09502 1.99859 7.99999 2.00001C8.69099 2.00001 9.35499 2.11701 9.97299 2.33201C9.99099 2.55101 9.99999 2.77401 9.99999 3.00001ZM9.99999 8.00001C9.99999 8.07301 9.99599 8.14601 9.98799 8.21701C11.006 8.19801 12.188 7.86401 13.319 7.21101C13.5138 7.09837 13.7039 6.97793 13.889 6.85001C13.5845 5.2912 12.6748 3.91654 11.359 3.02701C11.3184 3.24203 11.2701 3.4555 11.214 3.66701C10.874 4.93601 10.27 6.01301 9.55799 6.74601C9.83499 7.08901 9.99999 7.52601 9.99999 8.00001ZM9.86299 8.72801C9.7665 8.97424 9.6223 9.19898 9.43867 9.3893C9.25504 9.57962 9.03561 9.73177 8.79299 9.83701C9.31799 10.707 10.198 11.562 11.328 12.214C11.528 12.33 11.73 12.436 11.933 12.531C12.5291 12.0148 13.0174 11.3858 13.3697 10.6803C13.722 9.97485 13.9314 9.2067 13.986 8.42001C13.778 8.49301 13.565 8.56001 13.345 8.61901C12.081 8.95801 10.852 8.97501 9.86299 8.72901V8.72801ZM7.99999 10C7.54999 10 7.13399 9.85101 6.79999 9.60001C6.30599 10.49 6.00399 11.682 6.00399 12.991C6.00399 13.221 6.01399 13.448 6.03099 13.669C6.66418 13.8887 7.32976 14.0006 7.99999 14C8.93999 14 9.82999 13.784 10.623 13.398C10.4512 13.2521 10.2854 13.0993 10.126 12.94C9.20099 12.014 8.57099 10.959 8.28999 9.98001C8.19599 9.99301 8.09899 10 7.99999 10V10ZM5.99999 8.00001C5.99999 7.92001 6.00499 7.84001 6.01399 7.76101C4.99399 7.77801 3.80899 8.11201 2.67399 8.76801C2.47993 8.88002 2.29044 8.99978 2.10599 9.12701C2.25415 9.90137 2.5534 10.639 2.98664 11.2977C3.41988 11.9564 3.97864 12.5233 4.63099 12.966C4.6716 12.7465 4.72097 12.5286 4.77899 12.313C5.11899 11.046 5.71899 9.97101 6.42899 9.23801C6.15021 8.88567 5.99899 8.44929 5.99999 8.00001ZM2.65299 7.36801C3.91999 7.02801 5.15099 7.01301 6.14099 7.26101C6.33699 6.76701 6.72399 6.37101 7.21099 6.16101C6.68699 5.28701 5.80499 4.42801 4.66999 3.77301C4.47624 3.6611 4.27809 3.55702 4.07599 3.46101C3.47921 3.97609 2.99002 4.60395 2.63651 5.30857C2.283 6.01319 2.07213 6.78068 2.01599 7.56701C2.22199 7.49301 2.43399 7.42701 2.65299 7.36801V7.36801ZM7.99999 9.00001C8.26521 9.00001 8.51956 8.89465 8.7071 8.70711C8.89463 8.51958 8.99999 8.26522 8.99999 8.00001C8.99999 7.73479 8.89463 7.48044 8.7071 7.2929C8.51956 7.10536 8.26521 7.00001 7.99999 7.00001C7.73477 7.00001 7.48042 7.10536 7.29288 7.2929C7.10535 7.48044 6.99999 7.73479 6.99999 8.00001C6.99999 8.26522 7.10535 8.51958 7.29288 8.70711C7.48042 8.89465 7.73477 9.00001 7.99999 9.00001Z"></path>
      <path d="M8 15C6.14348 15 4.36301 14.2625 3.05025 12.9497C1.7375 11.637 1 9.85652 1 8C1 6.14348 1.7375 4.36301 3.05025 3.05025C4.36301 1.7375 6.14348 1 8 1C9.85652 1 11.637 1.7375 12.9497 3.05025C14.2625 4.36301 15 6.14348 15 8C15 9.85652 14.2625 11.637 12.9497 12.9497C11.637 14.2625 9.85652 15 8 15ZM8 16C10.1217 16 12.1566 15.1571 13.6569 13.6569C15.1571 12.1566 16 10.1217 16 8C16 5.87827 15.1571 3.84344 13.6569 2.34315C12.1566 0.842855 10.1217 0 8 0C5.87827 0 3.84344 0.842855 2.34315 2.34315C0.842855 3.84344 0 5.87827 0 8C0 10.1217 0.842855 12.1566 2.34315 13.6569C3.84344 15.1571 5.87827 16 8 16V16Z"></path>
    </g>
    <defs>
      <clipPath id="clip0_101_24">
        <rect width="16" height="16"></rect>
      </clipPath>
    </defs>
  </symbol>
  <symbol xmlns="http://www.w3.org/2000/svg" viewBox="0 0 16 16" id="cpu">
    <g clip-path="url(#clip0_101_8)">
      <path d="M6.5 6C6.36739 6 6.24021 6.05268 6.14645 6.14645C6.05268 6.24021 6 6.36739 6 6.5V9.5C6 9.63261 6.05268 9.75979 6.14645 9.85355C6.24021 9.94732 6.36739 10 6.5 10H9.5C9.63261 10 9.75979 9.94732 9.85355 9.85355C9.94732 9.75979 10 9.63261 10 9.5V6.5C10 6.36739 9.94732 6.24021 9.85355 6.14645C9.75979 6.05268 9.63261 6 9.5 6H6.5Z"></path>
      <path d="M5.5 0.5C5.5 0.367392 5.44732 0.240215 5.35355 0.146447C5.25979 0.0526784 5.13261 0 5 0C4.86739 0 4.74021 0.0526784 4.64645 0.146447C4.55268 0.240215 4.5 0.367392 4.5 0.5V2C3.83696 2 3.20107 2.26339 2.73223 2.73223C2.26339 3.20107 2 3.83696 2 4.5H0.5C0.367392 4.5 0.240215 4.55268 0.146447 4.64645C0.0526784 4.74021 0 4.86739 0 5C0 5.13261 0.0526784 5.25979 0.146447 5.35355C0.240215 5.44732 0.367392 5.5 0.5 5.5H2V6.5H0.5C0.367392 6.5 0.240215 6.55268 0.146447 6.64645C0.0526784 6.74021 0 6.86739 0 7C0 7.13261 0.0526784 7.25979 0.146447 7.35355C0.240215 7.44732 0.367392 7.5 0.5 7.5H2V8.5H0.5C0.367392 8.5 0.240215 8.55268 0.146447 8.64645C0.0526784 8.74021 0 8.86739 0 9C0 9.13261 0.0526784 9.25979 0.146447 9.35355C0.240215 9.44732 0.367392 9.5 0.5 9.5H2V10.5H0.5C0.367392 10.5 0.240215 10.5527 0.146447 10.6464C0.0526784 10.7402 0 10.8674 0 11C0 11.1326 0.0526784 11.2598 0.146447 11.3536C0.240215 11.4473 0.367392 11.5 0.5 11.5H2C2 12.163 2.26339 12.7989 2.73223 13.2678C3.20107 13.7366 3.83696 14 4.5 14V15.5C4.5 15.6326 4.55268 15.7598 4.64645 15.8536C4.74021 15.9473 4.86739 16 5 16C5.13261 16 5.25979 15.9473 5.35355 15.8536C5.44732 15.7598 5.5 15.6326 5.5 15.5V14H6.5V15.5C6.5 15.6326 6.55268 15.7598 6.64645 15.8536C6.74021 15.9473 6.86739 16 7 16C7.13261 16 7.25979 15.9473 7.35355 15.8536C7.44732 15.7598 7.5 15.6326 7.5 15.5V14H8.5V15.5C8.5 15.6326 8.55268 15.7598 8.64645 15.8536C8.74021 15.9473 8.86739 16 9 16C9.13261 16 9.25979 15.9473 9.35355 15.8536C9.44732 15.7598 9.5 15.6326 9.5 15.5V14H10.5V15.5C10.5 15.6326 10.5527 15.7598 10.6464 15.8536C10.7402 15.9473 10.8674 16 11 16C11.1326 16 11.2598 15.9473 11.3536 15.8536C11.4473 15.7598 11.5 15.6326 11.5 15.5V14C12.163 14 12.7989 13.7366 13.2678 13.2678C13.7366 12.7989 14 12.163 14 11.5H15.5C15.6326 11.5 15.7598 11.4473 15.8536 11.3536C15.9473 11.2598 16 11.1326 16 11C16 10.8674 15.9473 10.7402 15.8536 10.6464C15.7598 10.5527 15.6326 10.5 15.5 10.5H14V9.5H15.5C15.6326 9.5 15.7598 9.44732 15.8536 9.35355C15.9473 9.25979 16 9.13261 16 9C16 8.86739 15.9473 8.74021 15.8536 8.64645C15.7598 8.55268 15.6326 8.5 15.5 8.5H14V7.5H15.5C15.6326 7.5 15.7598 7.44732 15.8536 7.35355C15.9473 7.25979 16 7.13261 16 7C16 6.86739 15.9473 6.74021 15.8536 6.64645C15.7598 6.55268 15.6326 6.5 15.5 6.5H14V5.5H15.5C15.6326 5.5 15.7598 5.44732 15.8536 5.35355C15.9473 5.25979 16 5.13261 16 5C16 4.86739 15.9473 4.74021 15.8536 4.64645C15.7598 4.55268 15.6326 4.5 15.5 4.5H14C14 3.83696 13.7366 3.20107 13.2678 2.73223C12.7989 2.26339 12.163 2 11.5 2V0.5C11.5 0.367392 11.4473 0.240215 11.3536 0.146447C11.2598 0.0526784 11.1326 0 11 0C10.8674 0 10.7402 0.0526784 10.6464 0.146447C10.5527 0.240215 10.5 0.367392 10.5 0.5V2H9.5V0.5C9.5 0.367392 9.44732 0.240215 9.35355 0.146447C9.25979 0.0526784 9.13261 0 9 0C8.86739 0 8.74021 0.0526784 8.64645 0.146447C8.55268 0.240215 8.5 0.367392 8.5 0.5V2H7.5V0.5C7.5 0.367392 7.44732 0.240215 7.35355 0.146447C7.25979 0.0526784 7.13261 0 7 0C6.86739 0 6.74021 0.0526784 6.64645 0.146447C6.55268 0.240215 6.5 0.367392 6.5 0.5V2H5.5V0.5ZM6.5 5H9.5C9.89782 5 10.2794 5.15804 10.5607 5.43934C10.842 5.72064 11 6.10218 11 6.5V9.5C11 9.89782 10.842 10.2794 10.5607 10.5607C10.2794 10.842 9.89782 11 9.5 11H6.5C6.10218 11 5.72064 10.842 5.43934 10.5607C5.15804 10.2794 5 9.89782 5 9.5V6.5C5 6.10218 5.15804 5.72064 5.43934 5.43934C5.72064 5.15804 6.10218 5 6.5 5V5Z"></path>
    </g>
    <defs>
      <clipPath id="clip0_101_8">
        <rect width="16" height="16"></rect>
      </clipPath>
    </defs>
  </symbol>
  <symbol xmlns="http://www.w3.org/2000/svg" viewBox="0 0 16 16" id="gpu">
    <path d="M4 8C4 7.80302 4.0388 7.60796 4.11418 7.42597C4.18956 7.24399 4.30005 7.07863 4.43934 6.93934C4.57863 6.80005 4.74399 6.68956 4.92597 6.61418C5.10796 6.5388 5.30302 6.5 5.5 6.5C5.69698 6.5 5.89204 6.5388 6.07403 6.61418C6.25601 6.68956 6.42137 6.80005 6.56066 6.93934C6.69995 7.07863 6.81044 7.24399 6.88582 7.42597C6.9612 7.60796 7 7.80302 7 8C7 8.39782 6.84196 8.77936 6.56066 9.06066C6.27936 9.34196 5.89782 9.5 5.5 9.5C5.10218 9.5 4.72064 9.34196 4.43934 9.06066C4.15804 8.77936 4 8.39782 4 8V8ZM11.5 6.5C11.1022 6.5 10.7206 6.65804 10.4393 6.93934C10.158 7.22064 10 7.60218 10 8C10 8.39782 10.158 8.77936 10.4393 9.06066C10.7206 9.34196 11.1022 9.5 11.5 9.5C11.8978 9.5 12.2794 9.34196 12.5607 9.06066C12.842 8.77936 13 8.39782 13 8C13 7.60218 12.842 7.22064 12.5607 6.93934C12.2794 6.65804 11.8978 6.5 11.5 6.5Z"></path>
    <path d="M0 1.5C0 1.36739 0.0526784 1.24021 0.146447 1.14645C0.240215 1.05268 0.367392 1 0.5 1H1.5C1.63261 1 1.75979 1.05268 1.85355 1.14645C1.94732 1.24021 2 1.36739 2 1.5V4H15.5C15.6326 4 15.7598 4.05268 15.8536 4.14645C15.9473 4.24021 16 4.36739 16 4.5V11.5C16 11.6326 15.9473 11.7598 15.8536 11.8536C15.7598 11.9473 15.6326 12 15.5 12H2V14.5C2 14.6326 1.94732 14.7598 1.85355 14.8536C1.75979 14.9473 1.63261 15 1.5 15C1.36739 15 1.24021 14.9473 1.14645 14.8536C1.05268 14.7598 1 14.6326 1 14.5V2H0.5C0.367392 2 0.240215 1.94732 0.146447 1.85355C0.0526784 1.75979 0 1.63261 0 1.5ZM5.5 5.5C4.83696 5.5 4.20107 5.76339 3.73223 6.23223C3.26339 6.70107 3 7.33696 3 8C3 8.66304 3.26339 9.29893 3.73223 9.76777C4.20107 10.2366 4.83696 10.5 5.5 10.5C6.16304 10.5 6.79893 10.2366 7.26777 9.76777C7.73661 9.29893 8 8.66304 8 8C8 7.33696 7.73661 6.70107 7.26777 6.23223C6.79893 5.76339 6.16304 5.5 5.5 5.5ZM9 8C9 8.66304 9.26339 9.29893 9.73223 9.76777C10.2011 10.2366 10.837 10.5 11.5 10.5C12.163 10.5 12.7989 10.2366 13.2678 9.76777C13.7366 9.29893 14 8.66304 14 8C14 7.33696 13.7366 6.70107 13.2678 6.23223C12.7989 5.76339 12.163 5.5 11.5 5.5C10.837 5.5 10.2011 5.76339 9.73223 6.23223C9.26339 6.70107 9 7.33696 9 8V8Z"></path>
    <path d="M3 12.5H6.5V13.5C6.5 13.6326 6.44732 13.7598 6.35355 13.8536C6.25979 13.9473 6.13261 14 6 14H3.5C3.36739 14 3.24021 13.9473 3.14645 13.8536C3.05268 13.7598 3 13.6326 3 13.5V12.5ZM7 13.5V12.5H11V13.5C11 13.6326 10.9473 13.7598 10.8536 13.8536C10.7598 13.9473 10.6326 14 10.5 14H7.5C7.36739 14 7.24021 13.9473 7.14645 13.8536C7.05268 13.7598 7 13.6326 7 13.5Z"></path>
  </symbol>
  <symbol xmlns="http://www.w3.org/2000/svg" viewBox="0 0 16 16" id="hdd">
    <g clip-path="url(#clip0_101_14)">
      <path d="M8.78497 9.896C9.48567 9.70466 10.0932 9.26568 10.4949 8.66048C10.8965 8.05528 11.065 7.32494 10.9692 6.60493C10.8733 5.88493 10.5196 5.22413 9.97356 4.7451C9.42755 4.26608 8.72633 4.00134 7.99997 4C7.2822 3.99972 6.58811 4.25679 6.0437 4.72456C5.49928 5.19233 5.14062 5.83979 5.03282 6.54942C4.92501 7.25904 5.07521 7.98381 5.45614 8.59215C5.83707 9.2005 6.4235 9.6521 7.10897 9.865C7.77597 9.425 8.50497 8.955 9.06397 8.597C9.28797 8.453 9.54697 8.712 9.40397 8.937L8.78397 9.897L8.78497 9.896ZM8.99997 7C8.99997 7.26522 8.89461 7.51957 8.70708 7.70711C8.51954 7.89464 8.26519 8 7.99997 8C7.73475 8 7.4804 7.89464 7.29286 7.70711C7.10533 7.51957 6.99997 7.26522 6.99997 7C6.99997 6.73478 7.10533 6.48043 7.29286 6.29289C7.4804 6.10536 7.73475 6 7.99997 6C8.26519 6 8.51954 6.10536 8.70708 6.29289C8.89461 6.48043 8.99997 6.73478 8.99997 7Z"></path>
      <path d="M4 0C3.46957 0 2.96086 0.210714 2.58579 0.585786C2.21071 0.960859 2 1.46957 2 2V14C2 14.5304 2.21071 15.0391 2.58579 15.4142C2.96086 15.7893 3.46957 16 4 16H12C12.5304 16 13.0391 15.7893 13.4142 15.4142C13.7893 15.0391 14 14.5304 14 14V2C14 1.46957 13.7893 0.960859 13.4142 0.585786C13.0391 0.210714 12.5304 0 12 0L4 0ZM13 1.5C13 1.63261 12.9473 1.75979 12.8536 1.85355C12.7598 1.94732 12.6326 2 12.5 2C12.3674 2 12.2402 1.94732 12.1464 1.85355C12.0527 1.75979 12 1.63261 12 1.5C12 1.36739 12.0527 1.24021 12.1464 1.14645C12.2402 1.05268 12.3674 1 12.5 1C12.6326 1 12.7598 1.05268 12.8536 1.14645C12.9473 1.24021 13 1.36739 13 1.5V1.5ZM13 14.5C13 14.6326 12.9473 14.7598 12.8536 14.8536C12.7598 14.9473 12.6326 15 12.5 15C12.3674 15 12.2402 14.9473 12.1464 14.8536C12.0527 14.7598 12 14.6326 12 14.5C12 14.3674 12.0527 14.2402 12.1464 14.1464C12.2402 14.0527 12.3674 14 12.5 14C12.6326 14 12.7598 14.0527 12.8536 14.1464C12.9473 14.2402 13 14.3674 13 14.5ZM3.5 15C3.36739 15 3.24021 14.9473 3.14645 14.8536C3.05268 14.7598 3 14.6326 3 14.5C3 14.3674 3.05268 14.2402 3.14645 14.1464C3.24021 14.0527 3.36739 14 3.5 14C3.63261 14 3.75979 14.0527 3.85355 14.1464C3.94732 14.2402 4 14.3674 4 14.5C4 14.6326 3.94732 14.7598 3.85355 14.8536C3.75979 14.9473 3.63261 15 3.5 15ZM4 1.5C4 1.63261 3.94732 1.75979 3.85355 1.85355C3.75979 1.94732 3.63261 2 3.5 2C3.36739 2 3.24021 1.94732 3.14645 1.85355C3.05268 1.75979 3 1.63261 3 1.5C3 1.36739 3.05268 1.24021 3.14645 1.14645C3.24021 1.05268 3.36739 1 3.5 1C3.63261 1 3.75979 1.05268 3.85355 1.14645C3.94732 1.24021 4 1.36739 4 1.5V1.5ZM6.882 12.677C6.67526 12.8839 6.39482 13.0001 6.10235 13.0002C5.80989 13.0003 5.52937 12.8842 5.3225 12.6775C5.11563 12.4708 4.99936 12.1903 4.99927 11.8979C4.99922 11.753 5.0277 11.6096 5.08307 11.4758C5.13845 11.342 5.21963 11.2204 5.322 11.118C5.422 11.02 5.718 10.804 6.117 10.53C5.25802 10.0719 4.59558 9.31632 4.25381 8.4048C3.91205 7.49328 3.91442 6.4884 4.2605 5.57851C4.60657 4.66861 5.27259 3.91615 6.13373 3.46215C6.99486 3.00814 7.99201 2.88376 8.93829 3.11231C9.88457 3.34085 10.715 3.90664 11.274 4.70364C11.833 5.50063 12.0822 6.47413 11.9748 7.44168C11.8674 8.40922 11.4109 9.30441 10.6908 9.95946C9.97066 10.6145 9.03636 10.9845 8.063 11C7.526 11.813 7.043 12.515 6.882 12.677V12.677Z"></path>
    </g>
    <defs>
      <clipPath id="clip0_101_14">
        <rect width="16" height="16"></rect>
      </clipPath>
    </defs>
  </symbol>
  <symbol xmlns="http://www.w3.org/2000/svg" viewBox="0 0 16 16" id="memory">
    <g clip-path="url(#clip0_101_12)">
      <path d="M1 3C0.734784 3 0.48043 3.10536 0.292893 3.29289C0.105357 3.48043 0 3.73478 0 4L0 12C0 12.2652 0.105357 12.5196 0.292893 12.7071C0.48043 12.8946 0.734784 13 1 13H5.586C5.85119 12.9999 6.10551 12.8945 6.293 12.707L6.646 12.354C6.69245 12.3074 6.74762 12.2705 6.80837 12.2453C6.86911 12.2201 6.93423 12.2071 7 12.2071C7.06577 12.2071 7.13089 12.2201 7.19163 12.2453C7.25238 12.2705 7.30755 12.3074 7.354 12.354L7.707 12.707C7.89449 12.8945 8.1488 12.9999 8.414 13H15C15.2652 13 15.5196 12.8946 15.7071 12.7071C15.8946 12.5196 16 12.2652 16 12V4C16 3.73478 15.8946 3.48043 15.7071 3.29289C15.5196 3.10536 15.2652 3 15 3H1ZM1.5 4H4.5C4.63261 4 4.75979 4.05268 4.85355 4.14645C4.94732 4.24021 5 4.36739 5 4.5V8.5C5 8.63261 4.94732 8.75979 4.85355 8.85355C4.75979 8.94732 4.63261 9 4.5 9H1.5C1.36739 9 1.24021 8.94732 1.14645 8.85355C1.05268 8.75979 1 8.63261 1 8.5V4.5C1 4.36739 1.05268 4.24021 1.14645 4.14645C1.24021 4.05268 1.36739 4 1.5 4V4ZM6.5 4H9.5C9.63261 4 9.75979 4.05268 9.85355 4.14645C9.94732 4.24021 10 4.36739 10 4.5V8.5C10 8.63261 9.94732 8.75979 9.85355 8.85355C9.75979 8.94732 9.63261 9 9.5 9H6.5C6.36739 9 6.24021 8.94732 6.14645 8.85355C6.05268 8.75979 6 8.63261 6 8.5V4.5C6 4.36739 6.05268 4.24021 6.14645 4.14645C6.24021 4.05268 6.36739 4 6.5 4V4ZM11 4.5C11 4.36739 11.0527 4.24021 11.1464 4.14645C11.2402 4.05268 11.3674 4 11.5 4H14.5C14.6326 4 14.7598 4.05268 14.8536 4.14645C14.9473 4.24021 15 4.36739 15 4.5V8.5C15 8.63261 14.9473 8.75979 14.8536 8.85355C14.7598 8.94732 14.6326 9 14.5 9H11.5C11.3674 9 11.2402 8.94732 11.1464 8.85355C11.0527 8.75979 11 8.63261 11 8.5V4.5ZM2 10V12H1V10H2ZM4 10V12H3V10H4ZM6 10V12H5V10H6ZM9 10V12H8V10H9ZM11 10V12H10V10H11ZM13 10V12H12V10H13ZM15 10V12H14V10H15Z"></path>
    </g>
    <defs>
      <clipPath id="clip0_101_12">
        <rect width="16" height="16"></rect>
      </clipPath>
    </defs>
  </symbol>
  <symbol xmlns="http://www.w3.org/2000/svg" viewBox="0 0 16 16" id="motherboard">
    <path d="M5 7H8V4H5V7Z"></path>
    <path d="M1 2C1 1.46957 1.21071 0.960859 1.58579 0.585786C1.96086 0.210714 2.46957 0 3 0L14 0C14.5304 0 15.0391 0.210714 15.4142 0.585786C15.7893 0.960859 16 1.46957 16 2V13C16 13.5304 15.7893 14.0391 15.4142 14.4142C15.0391 14.7893 14.5304 15 14 15H3C2.46957 15 1.96086 14.7893 1.58579 14.4142C1.21071 14.0391 1 13.5304 1 13V11H0.5C0.367392 11 0.240215 10.9473 0.146447 10.8536C0.0526784 10.7598 0 10.6326 0 10.5V9.5C0 9.36739 0.0526784 9.24021 0.146447 9.14645C0.240215 9.05268 0.367392 9 0.5 9H1V8H0.5C0.367392 8 0.240215 7.94732 0.146447 7.85355C0.0526784 7.75979 0 7.63261 0 7.5V6.5C0 6.36739 0.0526784 6.24021 0.146447 6.14645C0.240215 6.05268 0.367392 6 0.5 6H1V5H0.5C0.367392 5 0.240215 4.94732 0.146447 4.85355C0.0526784 4.75979 0 4.63261 0 4.5V2.5C0 2.36739 0.0526784 2.24021 0.146447 2.14645C0.240215 2.05268 0.367392 2 0.5 2H1ZM12 2.5C12 2.36739 11.9473 2.24021 11.8536 2.14645C11.7598 2.05268 11.6326 2 11.5 2C11.3674 2 11.2402 2.05268 11.1464 2.14645C11.0527 2.24021 11 2.36739 11 2.5V9.5C11 9.63261 11.0527 9.75979 11.1464 9.85355C11.2402 9.94732 11.3674 10 11.5 10C11.6326 10 11.7598 9.94732 11.8536 9.85355C11.9473 9.75979 12 9.63261 12 9.5V2.5ZM14 2.5C14 2.36739 13.9473 2.24021 13.8536 2.14645C13.7598 2.05268 13.6326 2 13.5 2C13.3674 2 13.2402 2.05268 13.1464 2.14645C13.0527 2.24021 13 2.36739 13 2.5V9.5C13 9.63261 13.0527 9.75979 13.1464 9.85355C13.2402 9.94732 13.3674 10 13.5 10C13.6326 10 13.7598 9.94732 13.8536 9.85355C13.9473 9.75979 14 9.63261 14 9.5V2.5ZM3.5 10C3.36739 10 3.24021 10.0527 3.14645 10.1464C3.05268 10.2402 3 10.3674 3 10.5C3 10.6326 3.05268 10.7598 3.14645 10.8536C3.24021 10.9473 3.36739 11 3.5 11H9.5C9.63261 11 9.75979 10.9473 9.85355 10.8536C9.94732 10.7598 10 10.6326 10 10.5C10 10.3674 9.94732 10.2402 9.85355 10.1464C9.75979 10.0527 9.63261 10 9.5 10H3.5ZM3.5 12C3.36739 12 3.24021 12.0527 3.14645 12.1464C3.05268 12.2402 3 12.3674 3 12.5C3 12.6326 3.05268 12.7598 3.14645 12.8536C3.24021 12.9473 3.36739 13 3.5 13H9.5C9.63261 13 9.75979 12.9473 9.85355 12.8536C9.94732 12.7598 10 12.6326 10 12.5C10 12.3674 9.94732 12.2402 9.85355 12.1464C9.75979 12.0527 9.63261 12 9.5 12H3.5ZM4 4H3.5C3.36739 4 3.24021 4.05268 3.14645 4.14645C3.05268 4.24021 3 4.36739 3 4.5C3 4.63261 3.05268 4.75979 3.14645 4.85355C3.24021 4.94732 3.36739 5 3.5 5H4V6H3.5C3.36739 6 3.24021 6.05268 3.14645 6.14645C3.05268 6.24021 3 6.36739 3 6.5C3 6.63261 3.05268 6.75979 3.14645 6.85355C3.24021 6.94732 3.36739 7 3.5 7H4C4 7.26522 4.10536 7.51957 4.29289 7.70711C4.48043 7.89464 4.73478 8 5 8V8.5C5 8.63261 5.05268 8.75979 5.14645 8.85355C5.24021 8.94732 5.36739 9 5.5 9C5.63261 9 5.75979 8.94732 5.85355 8.85355C5.94732 8.75979 6 8.63261 6 8.5V8H7V8.5C7 8.63261 7.05268 8.75979 7.14645 8.85355C7.24021 8.94732 7.36739 9 7.5 9C7.63261 9 7.75979 8.94732 7.85355 8.85355C7.94732 8.75979 8 8.63261 8 8.5V8C8.26522 8 8.51957 7.89464 8.70711 7.70711C8.89464 7.51957 9 7.26522 9 7H9.5C9.63261 7 9.75979 6.94732 9.85355 6.85355C9.94732 6.75979 10 6.63261 10 6.5C10 6.36739 9.94732 6.24021 9.85355 6.14645C9.75979 6.05268 9.63261 6 9.5 6H9V5H9.5C9.63261 5 9.75979 4.94732 9.85355 4.85355C9.94732 4.75979 10 4.63261 10 4.5C10 4.36739 9.94732 4.24021 9.85355 4.14645C9.75979 4.05268 9.63261 4 9.5 4H9C9 3.73478 8.89464 3.48043 8.70711 3.29289C8.51957 3.10536 8.26522 3 8 3V2.5C8 2.36739 7.94732 2.24021 7.85355 2.14645C7.75979 2.05268 7.63261 2 7.5 2C7.36739 2 7.24021 2.05268 7.14645 2.14645C7.05268 2.24021 7 2.36739 7 2.5V3H6V2.5C6 2.36739 5.94732 2.24021 5.85355 2.14645C5.75979 2.05268 5.63261 2 5.5 2C5.36739 2 5.24021 2.05268 5.14645 2.14645C5.05268 2.24021 5 2.36739 5 2.5V3C4.73478 3 4.48043 3.10536 4.29289 3.29289C4.10536 3.48043 4 3.73478 4 4V4ZM11 11.5V12.5C11 12.6326 11.0527 12.7598 11.1464 12.8536C11.2402 12.9473 11.3674 13 11.5 13H13.5C13.6326 13 13.7598 12.9473 13.8536 12.8536C13.9473 12.7598 14 12.6326 14 12.5V11.5C14 11.3674 13.9473 11.2402 13.8536 11.1464C13.7598 11.0527 13.6326 11 13.5 11H11.5C11.3674 11 11.2402 11.0527 11.1464 11.1464C11.0527 11.2402 11 11.3674 11 11.5Z"></path>
  </symbol>
  <symbol xmlns="http://www.w3.org/2000/svg" viewBox="0 0 16 16" id="power">
    <g clip-path="url(#clip0_101_28)">
      <path fill-rule="evenodd" clip-rule="evenodd" d="M1 7.99999C1.00018 6.42836 1.52926 4.90251 2.50203 3.66811C3.47481 2.43371 4.83469 1.56258 6.36273 1.19498C7.89077 0.827384 9.49806 0.984701 10.9258 1.64161C12.3536 2.29851 13.5188 3.41678 14.2337 4.81637C14.9487 6.21597 15.1719 7.81544 14.8673 9.35729C14.5628 10.8991 13.7482 12.2936 12.5548 13.3163C11.3614 14.3389 9.85851 14.9302 8.28821 14.9949C6.71791 15.0596 5.17151 14.594 3.898 13.673C3.731 13.552 3.682 13.267 3.896 13.053L5.696 11.253C6.37011 11.7573 7.20343 12.0018 8.04316 11.9416C8.8829 11.8813 9.67279 11.5204 10.268 10.925L11.682 9.50999C11.7757 9.41623 11.8284 9.28907 11.8284 9.15649C11.8284 9.02391 11.7757 8.89676 11.682 8.80299L10.975 8.09599L12.534 6.53299C12.5817 6.4868 12.6197 6.43157 12.6458 6.37054C12.6719 6.3095 12.6856 6.24387 12.6861 6.17748C12.6866 6.11109 12.6738 6.04528 12.6486 5.98387C12.6234 5.92246 12.5862 5.86668 12.5392 5.81981C12.4922 5.77293 12.4363 5.73588 12.3748 5.71083C12.3133 5.68577 12.2475 5.67322 12.1811 5.67388C12.1147 5.67455 12.0491 5.68844 11.9881 5.71472C11.9272 5.74101 11.8721 5.77918 11.826 5.82699L10.267 7.38899L8.853 5.97499L10.413 4.41299C10.4626 4.36731 10.5024 4.31208 10.53 4.25062C10.5577 4.18915 10.5727 4.12273 10.574 4.05534C10.5754 3.98795 10.5631 3.92098 10.5379 3.85846C10.5127 3.79594 10.4751 3.73916 10.4274 3.69154C10.3797 3.64391 10.3229 3.60642 10.2604 3.58131C10.1978 3.55621 10.1308 3.54401 10.0634 3.54545C9.99603 3.5469 9.92963 3.56195 9.86821 3.58971C9.80679 3.61747 9.75161 3.65737 9.706 3.70699L8.146 5.26699L7.439 4.56099C7.34524 4.46726 7.21808 4.4146 7.0855 4.4146C6.95292 4.4146 6.82576 4.46726 6.732 4.56099L5.318 5.97499C4.72285 6.57015 4.36211 7.35983 4.30187 8.19935C4.24163 9.03886 4.48593 9.87196 4.99 10.546L3.19 12.346C2.61 12.926 2.57 13.946 3.311 14.483C4.76631 15.5358 6.53358 16.0682 8.32827 15.9945C10.1229 15.9208 11.8406 15.2453 13.2047 14.0767C14.5688 12.9081 15.4999 11.3145 15.8482 9.55235C16.1965 7.79024 15.9416 5.96219 15.1246 4.36255C14.3076 2.7629 12.9761 1.48473 11.3444 0.733831C9.71268 -0.0170668 7.87575 -0.196997 6.12935 0.223009C4.38295 0.643016 2.82871 1.63852 1.71686 3.04924C0.605021 4.45995 0.000277246 6.2038 0 7.99999C0 8.1326 0.0526784 8.25978 0.146447 8.35355C0.240215 8.44731 0.367392 8.49999 0.5 8.49999C0.632608 8.49999 0.759785 8.44731 0.853553 8.35355C0.947322 8.25978 1 8.1326 1 7.99999Z"></path>
    </g>
    <defs>
      <clipPath id="clip0_101_28">
        <rect width="16" height="16"></rect>
      </clipPath>
    </defs>
  </symbol>
</svg>